# xmcd
#
# Track frame offsets:
#	150
#	16575
#	33642
#	48992
#	61980
#	80882
#	91985
#	109417
#	127075
#	144322
#	159487
#	183825
#	197800
#	211492
#	229457
#
# Disc length: 3207
#
# Revision: 1
# Processed by: cddbd v1.5.1PL0 Copyright (c) Steve Scherf et al.
# Submitted via: VisiTrax 2.9.5.180 - For more info visit www.synapsa.com
# Normalized: r0:DSETVAR1
#
DISCID=d40c850f
DTITLE=Various Artist - CDX 138 June 1996
DYEAR=1996
DGENRE=
TTITLE0=Toby Keith - A woman's touch
TTITLE1=Trisha Yearwood - Believe me baby (I lied)
TTITLE2=George Strait - Carried away
TTITLE3=Perfect Stranger - Cut me off
TTITLE4=Dwight Yoakam - Heart of stone
TTITLE5=Garth Brooks - It's midnight Cinderella
TTITLE6=Collin Raye - Love remains
TTITLE7=Western Flyer - Me
TTITLE8=Smokin' Armadillos - Miracle man
TTITLE9=Michelle Wright - Nobody's girl
TTITLE10=Ronna Reeves - Rodeo man
TTITLE11=Tim McGraw - She never lets it go to her heart
TTITLE12=Rich McCready - When hell freezes over
TTITLE13=Faith Hill - You can't lose me
TTITLE14=Corinda - The pantyhouse song
EXTD=
EXTT0=
EXTT1=
EXTT2=
EXTT3=
EXTT4=
EXTT5=
EXTT6=
EXTT7=
EXTT8=
EXTT9=
EXTT10=
EXTT11=
EXTT12=
EXTT13=
EXTT14=
PLAYORDER=
